<?xml version="1.0" encoding="utf-8"?>
<!-- Generator: Adobe Illustrator 17.0.0, SVG Export Plug-In . SVG Version: 6.00 Build 0)  -->
<!DOCTYPE svg PUBLIC "-//W3C//DTD SVG 1.1//EN" "http://www.w3.org/Graphics/SVG/1.1/DTD/svg11.dtd">
<svg version="1.1" id="Layer_1" xmlns="http://www.w3.org/2000/svg" xmlns:xlink="http://www.w3.org/1999/xlink" x="0px" y="0px"
	 width="2000px" height="2000px" viewBox="0 0 2000 2000" enable-background="new 0 0 2000 2000" xml:space="preserve">
<path d="M206.565,213.618v159.458c0,2.413-0.124,4.577-0.361,6.494c-0.248,1.928-0.609,4.092-1.082,6.493
	c-6.742,8.659-16.359,15.152-28.861,19.481c12.018,3.372,21.646,9.381,28.861,18.039c0.473,2.412,0.834,4.814,1.082,7.215
	c0.237,2.412,0.361,4.813,0.361,7.214v165.952c0,4.329,2.165,6.493,6.494,6.493h44.013v50.507h-50.507h0.722
	c-14.431-1.443-26.584-7.576-36.438-18.399c-9.864-10.822-14.791-23.686-14.791-38.601V438.013c0-4.803-2.412-7.214-7.215-7.214
	h-33.912v-50.507h33.912c4.803,0,7.215-2.401,7.215-7.215V213.618c0-15.874,5.524-29.458,16.595-40.766
	c11.06-11.296,24.532-16.956,40.406-16.956h44.013v50.507h-44.013C208.729,206.403,206.565,208.815,206.565,213.618z"/>
<path d="M508.877,155.896v505.069H458.37V408.43H358.078v252.534h-50.507V155.896h50.507v202.027H458.37V155.896H508.877z"/>
<path d="M606.279,206.403v150.798h105.343v50.507H606.279v202.748h131.318v50.507H555.773V357.201l50.507,0l-50.507-201.306h181.825
	v50.507H606.279z"/>
<path d="M941.779,384.62l76.482,276.345h-53.393l-62.773-239.547l-62.773,239.547h-54.115l76.482-276.345l-77.203-228.724h55.558
	l62.051,194.813l61.329-194.813h55.558L941.779,384.62z"/>
<path d="M1112.777,603.243V443.785c0-2.401,0.113-4.566,0.361-6.494c0.237-1.916,0.598-4.081,1.083-6.493
	c6.73-8.659,16.347-15.152,28.861-19.481c-12.029-3.36-21.645-9.381-28.861-18.039c-0.485-2.401-0.846-4.803-1.083-7.215
	c-0.248-2.401-0.361-4.803-0.361-7.214V212.896c0-4.329-2.164-6.493-6.494-6.493h-44.013v-50.507h50.507h-0.721
	c14.43,1.443,26.572,7.576,36.437,18.399c9.854,10.822,14.791,23.698,14.791,38.601v165.952c0,4.813,2.402,7.214,7.215,7.214h33.911
	v50.507h-33.911c-4.813,0-7.215,2.413-7.215,7.215v159.458c0,15.874-5.535,29.469-16.595,40.766
	c-11.071,11.307-24.532,16.956-40.405,16.956h-44.013v-50.507h44.013C1110.612,610.457,1112.777,608.056,1112.777,603.243z"/>
<circle fill="#EAC71B" cx="1320.365" cy="607.634" r="53.331"/>
<g>
	<path fill="#828282" d="M1472.667,660.965V541.238h-44.724v-16.019h107.597v16.019h-44.91v119.727H1472.667z"/>
	<path fill="#828282" d="M1598.135,629.297l17.224,2.13c-2.718,10.063-7.749,17.871-15.093,23.427
		c-7.347,5.556-16.731,8.333-28.15,8.333c-14.385,0-25.788-4.428-34.214-13.288c-8.426-8.858-12.64-21.281-12.64-37.27
		c0-16.543,4.26-29.383,12.779-38.52c8.518-9.135,19.568-13.704,33.149-13.704c13.15,0,23.89,4.476,32.224,13.426
		c8.335,8.951,12.501,21.544,12.501,37.779c0,0.988-0.032,2.47-0.093,4.445h-73.336c0.617,10.803,3.672,19.074,9.167,24.815
		c5.495,5.741,12.346,8.612,20.557,8.612c6.111,0,11.326-1.605,15.649-4.815C1592.178,641.459,1595.604,636.335,1598.135,629.297z
		 M1543.412,602.352h54.91c-0.742-8.272-2.84-14.476-6.297-18.613c-5.31-6.419-12.192-9.63-20.649-9.63
		c-7.656,0-14.09,2.562-19.307,7.685C1546.852,586.92,1543.967,593.772,1543.412,602.352z"/>
	<path fill="#828282" d="M1700.455,648.835c-6.174,5.247-12.115,8.951-17.825,11.111c-5.71,2.16-11.838,3.241-18.381,3.241
		c-10.803,0-19.107-2.639-24.908-7.917c-5.803-5.279-8.704-12.022-8.704-20.233c0-4.815,1.096-9.213,3.288-13.195
		c2.19-3.981,5.061-7.176,8.611-9.583c3.55-2.408,7.547-4.228,11.992-5.463c3.271-0.864,8.21-1.697,14.815-2.5
		c13.457-1.605,23.365-3.519,29.724-5.741c0.061-2.283,0.093-3.735,0.093-4.352c0-6.79-1.575-11.575-4.722-14.353
		c-4.26-3.765-10.589-5.648-18.983-5.648c-7.84,0-13.628,1.374-17.361,4.12c-3.736,2.748-6.499,7.609-8.287,14.584l-16.297-2.222
		c1.482-6.975,3.92-12.608,7.315-16.899c3.395-4.29,8.301-7.593,14.722-9.908c6.419-2.315,13.858-3.472,22.317-3.472
		c8.394,0,15.215,0.988,20.464,2.963c5.246,1.976,9.104,4.46,11.574,7.454c2.468,2.994,4.197,6.775,5.186,11.343
		c0.556,2.84,0.833,7.963,0.833,15.371v22.223c0,15.496,0.354,25.295,1.065,29.399c0.708,4.106,2.112,8.042,4.213,11.806h-17.408
		C1702.059,657.509,1700.948,653.465,1700.455,648.835z M1699.066,611.611c-6.05,2.47-15.125,4.569-27.224,6.297
		c-6.851,0.988-11.699,2.1-14.537,3.334c-2.84,1.235-5.032,3.041-6.574,5.417c-1.545,2.377-2.315,5.016-2.315,7.917
		c0,4.445,1.681,8.149,5.046,11.112c3.364,2.963,8.288,4.444,14.77,4.444c6.419,0,12.131-1.404,17.131-4.213
		c5-2.808,8.672-6.651,11.019-11.528c1.789-3.765,2.685-9.321,2.685-16.667V611.611z"/>
	<path fill="#828282" d="M1741.752,660.965v-98.338h14.908v13.797c3.086-4.815,7.19-8.688,12.315-11.621
		c5.124-2.931,10.957-4.399,17.5-4.399c7.283,0,13.257,1.513,17.918,4.537c4.66,3.025,7.947,7.254,9.861,12.685
		c7.778-11.482,17.903-17.223,30.372-17.223c9.753,0,17.253,2.701,22.5,8.102c5.247,5.403,7.872,13.72,7.872,24.955v67.503h-16.575
		v-61.947c0-6.667-0.542-11.466-1.622-14.399c-1.081-2.931-3.042-5.292-5.878-7.083c-2.842-1.79-6.175-2.685-10.003-2.685
		c-6.914,0-12.656,2.301-17.222,6.899c-4.569,4.599-6.853,11.96-6.853,22.084v57.132h-16.665v-63.892
		c0-7.408-1.36-12.963-4.075-16.667c-2.717-3.703-7.161-5.556-13.333-5.556c-4.693,0-9.029,1.235-13.01,3.703
		c-3.982,2.47-6.868,6.081-8.658,10.834c-1.792,4.754-2.685,11.606-2.685,20.556v51.021H1741.752z"/>
</g>
</svg>
